<svg id="Grupo_23" data-name="Grupo 23" xmlns="http://www.w3.org/2000/svg" xmlns:xlink="http://www.w3.org/1999/xlink" width="19.195" height="15.403" viewBox="0 0 19.195 15.403">
  <defs>
    <clipPath id="clip-path">
      <rect id="Rectángulo_10" data-name="Rectángulo 10" width="19.195" height="15.403"/>
    </clipPath>
  </defs>
  <g id="Grupo_7" data-name="Grupo 7" clip-path="url(#clip-path)">
    <path id="Trazado_7"  fill="#6cb792" data-name="Trazado 7" d="M6.078,1.778V.321c0-.143.085-.261.191-.264C7.331.02,8.471,0,9.658,0s2.327.02,3.389.057c.106,0,.191.121.191.264V1.778c0,.143-.085.261-.191.264-1.062.037-2.2.057-3.389.057s-2.326-.02-3.389-.057c-.106,0-.191-.121-.191-.264M19.195,5.954A1.034,1.034,0,0,1,18.16,6.988h-.174l-1.375,8.035a.448.448,0,0,1-.436.379H3.051a.448.448,0,0,1-.436-.379L1.24,6.988H1.034a1.034,1.034,0,0,1,0-2.068H2.629L3.766,1.25A.937.937,0,0,1,4.648.567H5.957v.965H4.689v0L3.639,4.92H15.675L14.626,1.536v0H13.358V.567h1.308a.937.937,0,0,1,.882.683l1.137,3.67H18.16a1.034,1.034,0,0,1,1.034,1.034M6.815,8.661a.925.925,0,0,0-.925-.925H5.755a.925.925,0,0,0-.925.925v4.083a.925.925,0,0,0,.925.925h.134a.925.925,0,0,0,.925-.925Zm3.775,0a.925.925,0,0,0-.925-.925H9.53a.925.925,0,0,0-.925.925v4.083a.925.925,0,0,0,.925.925h.134a.925.925,0,0,0,.925-.925Zm3.775,0a.925.925,0,0,0-.925-.925h-.134a.925.925,0,0,0-.925.925v4.083a.925.925,0,0,0,.925.925h.134a.925.925,0,0,0,.925-.925Z" transform="translate(0 0)"/>
  </g>
</svg>
