<?xml version="1.0" encoding="utf-8"?>
<!-- Generator: Adobe Illustrator 27.6.1, SVG Export Plug-In . SVG Version: 6.00 Build 0)  -->
<svg version="1.1" id="Grupo_25" xmlns="http://www.w3.org/2000/svg" xmlns:xlink="http://www.w3.org/1999/xlink" x="0px" y="0px"
	 viewBox="0 0 23.4 15.6" style="enable-background:new 0 0 23.4 15.6;" xml:space="preserve">
<style type="text/css">
	.st0{clip-path:url(#SVGID_00000157287422563037830830000006660852899568730003_);}
	.st1{fill:#3A3A3A;}
</style>
<g>
	<defs>
		<rect id="SVGID_1_" width="23.4" height="15.6"/>
	</defs>
	<clipPath id="SVGID_00000147920226923750561400000018125656448068702364_">
		<use xlink:href="#SVGID_1_"  style="overflow:visible;"/>
	</clipPath>
	<g id="Grupo_14" style="clip-path:url(#SVGID_00000147920226923750561400000018125656448068702364_);">
		<path id="Trazado_14" class="st1" d="M11.7,9.2l11.1-9C22.6,0.1,22.3,0,22,0H1.4C1.1,0,0.8,0.1,0.6,0.3L11.7,9.2z"/>
		<path id="Trazado_15" class="st1" d="M23.4,14.4c0-0.1,0-0.2,0-0.4V1.7l-6.7,5.4L23.4,14.4z"/>
		<path id="Trazado_16" class="st1" d="M15.6,8l-3.9,3.1L7.8,8L1,15.5c0.1,0,0.2,0.1,0.4,0.1H22c0.1,0,0.2,0,0.4-0.1L15.6,8z"/>
		<path id="Trazado_17" class="st1" d="M6.7,7.1L0,1.7v12.4c0,0.1,0,0.2,0,0.4L6.7,7.1z"/>
	</g>
</g>
</svg>
