<svg xmlns="http://www.w3.org/2000/svg" xmlns:xlink="http://www.w3.org/1999/xlink" width="16" height="16" viewBox="0 0 16 16">
  <defs>
    <clipPath id="clip-path">
      <rect id="Rectángulo_9" data-name="Rectángulo 9" width="16" height="16" fill="#6cb792"/>
    </clipPath>
  </defs>
  <g id="Grupo_22" data-name="Grupo 22" transform="translate(-163 -50)">
    <g id="Grupo_5" data-name="Grupo 5" transform="translate(163 50)" clip-path="url(#clip-path)">
      <path id="Trazado_4" data-name="Trazado 4" d="M11.382,0H4.618A4.618,4.618,0,0,0,0,4.618v6.763A4.618,4.618,0,0,0,4.618,16h6.764A4.618,4.618,0,0,0,16,11.382V4.618A4.618,4.618,0,0,0,11.382,0m3.145,11.5a3.066,3.066,0,0,1-3.066,3.066H4.539A3.065,3.065,0,0,1,1.473,11.5V4.579A3.065,3.065,0,0,1,4.539,1.513h6.922a3.066,3.066,0,0,1,3.066,3.066Z" fill="#6cb792"/>
      <path id="Trazado_5" data-name="Trazado 5" d="M54.307,50.674a4.151,4.151,0,1,0,4.152,4.151,4.151,4.151,0,0,0-4.152-4.151m0,6.842A2.691,2.691,0,1,1,57,54.825a2.691,2.691,0,0,1-2.691,2.691" transform="translate(-46.307 -46.786)" fill="#6cb792"/>
      <path id="Trazado_6" data-name="Trazado 6" d="M148.531,36.012a.967.967,0,1,0,.967.967.967.967,0,0,0-.967-.967" transform="translate(-136.241 -33.249)" fill="#6cb792"/>
    </g>
  </g>
</svg>
