<?xml version="1.0" encoding="utf-8"?>
<!-- Generator: Adobe Illustrator 27.6.1, SVG Export Plug-In . SVG Version: 6.00 Build 0)  -->
<svg version="1.1" id="Capa_1" xmlns="http://www.w3.org/2000/svg" xmlns:xlink="http://www.w3.org/1999/xlink" x="0px" y="0px"
	 viewBox="0 0 23.4 31.3" style="enable-background:new 0 0 23.4 31.3;" xml:space="preserve">
<style type="text/css">
	.st0{clip-path:url(#SVGID_00000024684181804809398070000011179304602116785025_);}
	.st1{fill:#3A3A3A;}
	.st2{fill:#8EBAE1;}
</style>
<g id="Grupo_27" transform="translate(0 0.004)">
	<g>
		<g>
			<defs>
				<rect id="SVGID_1_" y="0" width="23.4" height="31.3"/>
			</defs>
			<clipPath id="SVGID_00000112602999713467069840000014026395702524074400_">
				<use xlink:href="#SVGID_1_"  style="overflow:visible;"/>
			</clipPath>
			
				<g id="Grupo_26" transform="translate(0 -0.004)" style="clip-path:url(#SVGID_00000112602999713467069840000014026395702524074400_);">
				<path id="Trazado_22" class="st1" d="M11.7,0.2C5.3,0.2,0.2,5.3,0.2,11.7c0,7.9,8,16.7,10.9,19.2c0.4,0.3,0.9,0.3,1.2,0
					c2.9-2.5,10.9-11.3,10.9-19.2C23.3,5.3,18.1,0.2,11.7,0.2"/>
				<path id="Trazado_23" class="st1" d="M11.7,3.3c-5.1,0-9.2,4.1-9.2,9.2c0,6.3,6.4,13.4,8.7,15.4c0.3,0.2,0.7,0.2,1,0
					c1.8-1.6,3.4-3.4,4.7-5.3c0.1-0.1,0.2-0.3,0.3-0.5c1.9-2.8,3.7-6.3,3.7-9.6C21,7.4,16.8,3.3,11.7,3.3z"/>
				<path id="Trazado_24" class="st2" d="M17.3,12.8c0,3.1-2.5,5.6-5.6,5.6s-5.6-2.5-5.6-5.6s2.5-5.6,5.6-5.6S17.3,9.7,17.3,12.8
					L17.3,12.8"/>
			</g>
		</g>
	</g>
</g>
</svg>
