<?xml version="1.0" encoding="utf-8"?>
<!-- Generator: Adobe Illustrator 27.6.1, SVG Export Plug-In . SVG Version: 6.00 Build 0)  -->
<svg version="1.1" id="Grupo_24" xmlns="http://www.w3.org/2000/svg" xmlns:xlink="http://www.w3.org/1999/xlink" x="0px" y="0px"
	 viewBox="0 0 14 19" style="enable-background:new 0 0 14 19;" xml:space="preserve">
<style type="text/css">
	.st0{clip-path:url(#SVGID_00000161627131478389715940000007424452205751829409_);}
	.st1{fill:#3A3A3A;}
</style>
<g>
	<defs>
		<rect id="SVGID_1_" width="14" height="19"/>
	</defs>
	<clipPath id="SVGID_00000082367438444086748510000013005830473175373699_">
		<use xlink:href="#SVGID_1_"  style="overflow:visible;"/>
	</clipPath>
	<g id="Grupo_11" style="clip-path:url(#SVGID_00000082367438444086748510000013005830473175373699_);">
		<path id="Trazado_13" class="st1" d="M14,16.5c0-0.3-0.1-0.5-0.3-0.7l-2.8-2.9h0c-0.1-0.1-0.3-0.2-0.4-0.2
			c-0.3-0.1-0.6-0.1-0.8,0.1l-1.3,0.7c0,0-0.1,0-0.1,0c0,0-0.1,0-0.1,0L8,13.4c-0.2-0.1-0.4-0.3-0.6-0.4c-0.3-0.3-0.6-0.6-0.8-0.9
			c-0.4-0.5-0.7-1.1-1-1.6C5.2,9.9,4.9,9.3,4.7,8.7C4.5,8.3,4.4,7.9,4.3,7.5C4.3,7.2,4.2,6.9,4.3,6.6c0,0,0-0.1,0.1-0.1
			c0,0,0.1-0.1,0.1-0.1l1.1-0.6c0.2-0.1,0.3-0.3,0.4-0.5C6,5.1,6.1,4.9,6,4.7l-0.9-4C5.1,0.5,5,0.4,5,0.3C4.9,0.2,4.7,0.1,4.6,0
			C4.4,0,4.2,0,4,0.1L1,1.8C0.9,1.9,0.7,2,0.6,2.1C0.4,2.3,0.3,2.6,0.2,2.9C0.1,3.2,0.1,3.5,0,3.8C0,4.2,0,4.7,0,5.2
			C0,5.8,0.1,6.4,0.3,7C0.5,7.8,0.7,8.6,1,9.4c0.4,1,0.8,1.9,1.4,2.8c0.6,1.1,1.4,2.2,2.2,3.2c0.6,0.7,1.3,1.4,2,2
			c0.5,0.4,1.1,0.8,1.6,1.1c0.4,0.2,0.9,0.4,1.4,0.5c0.2,0,0.4,0,0.5,0c0.2,0,0.3-0.1,0.5-0.2l2.9-1.6C13.8,17,14,16.8,14,16.5"/>
	</g>
</g>
</svg>
