<svg id="Grupo_21" data-name="Grupo 21" xmlns="http://www.w3.org/2000/svg" xmlns:xlink="http://www.w3.org/1999/xlink" width="19.647" height="15.718" viewBox="0 0 19.647 15.718">
  <defs>
    <clipPath id="clip-path">
      <rect id="Rectángulo_8" data-name="Rectángulo 8" width="19.647" height="15.718"/>
    </clipPath>
  </defs>
  <g id="Grupo_3" data-name="Grupo 3" clip-path="url(#clip-path)">
    <path id="Trazado_3" fill="#6cb792" data-name="Trazado 3" d="M19.647,1.96a7.971,7.971,0,0,1-2.3.6A4.005,4.005,0,0,0,19.131.371a7.969,7.969,0,0,1-2.551.933,4,4,0,0,0-6.86,3.545A11.339,11.339,0,0,1,1.548.555,4,4,0,0,0,2.707,5.906,3.975,3.975,0,0,1,.9,5.381c0,.017,0,.033,0,.05A4,4,0,0,0,4.051,9.394a4.025,4.025,0,0,1-1.8.043,4,4,0,0,0,3.692,2.828A8.019,8.019,0,0,1,.951,13.9,8.153,8.153,0,0,1,0,13.833a11.3,11.3,0,0,0,6.1,1.884,11.289,11.289,0,0,0,11.531-11.2c0-.173,0-.346-.005-.516a8.116,8.116,0,0,0,2.024-2.04" transform="translate(0 0)"/>
  </g>
</svg>
